<svg xmlns="http://www.w3.org/2000/svg" viewBox="0 0 414.68 452.39"><g id="a5dda47e-b7e7-405a-933f-cc6f445c832a" data-name="圖層 1"><path d="M338.66,33.58c11.1,7.05,21.14,9.38,30,16.53,20.54,16.6,36.07,40.05,42.63,70.26s3.84,67.36-10.12,105.62c-9,24.59-22.26,49-36,73-15.55,27.09-32,54.16-51.81,78.82s-43.24,46.95-67.65,60.07c-40.87,22-77.59,15.29-108.57,4-35.16-12.8-67.65-31.16-89.17-61.92-18.66-26.67-28.5-61.75-37.56-96.93-8.79-34.13-16.83-71.5-2.63-115.68C20.55,127.53,51,87.08,85.15,60.93c25.1-19.23,51.47-31,77.22-41.54C178.07,13,193.81,6.86,209,3.59c53.17-11.48,93.26,6.23,129.7,30" style="fill:#f2b94b"/></g></svg>