<svg xmlns="http://www.w3.org/2000/svg" viewBox="0 0 187.06 213.93"><g id="e912f35b-97fd-4c6c-905b-9be93f6ec49f" data-name="圖層 1"><path d="M55.23,133.83a2,2,0,0,1-1.41-3.42L183.64.59a2,2,0,1,1,2.83,2.82L56.65,133.24A2,2,0,0,1,55.23,133.83Z" style="fill:#f2b94b"/><path d="M2,213.93a2,2,0,0,1-1.41-3.41L124.48,86.63a2,2,0,1,1,2.83,2.82L3.41,213.35A2,2,0,0,1,2,213.93Z" style="fill:#f2b94b"/><path d="M12,149.43a2,2,0,0,1-1.41-.58,2,2,0,0,1,0-2.83L80.19,76.44A2,2,0,0,1,83,79.27L13.44,148.85A2,2,0,0,1,12,149.43Z" style="fill:#f2b94b"/><path d="M95.22,66.23a2,2,0,0,1-1.41-.58,2,2,0,0,1,0-2.83l32.94-32.94a2,2,0,1,1,2.83,2.83L96.64,65.65A2,2,0,0,1,95.22,66.23Z" style="fill:#f2b94b"/></g></svg>