<svg id="f1f2af47-28a3-4415-ac53-2856ac116488" data-name="bg" xmlns="http://www.w3.org/2000/svg" viewBox="0 0 11.18 4.55"><g id="b4770cf3-738e-4150-a301-d402b6e162fb" data-name="TEXT shadow"><path d="M0,4.55H1L4.35.1H3.5L2,.66l-.52.92,1-.39h0Z" style="fill:#e9b54d"/><path d="M4.07,4.55l.77-1H3.54v0l.63-.34A7,7,0,0,0,6.33,1.46C7,.58,6.9,0,6,0A3.78,3.78,0,0,0,4.4.49L4,1.37A2.66,2.66,0,0,1,5.08,1c.38,0,.39.23.14.55A9,9,0,0,1,2.8,3.26l-.93.54-.56.75Z" style="fill:#e9b54d"/><path d="M10,2l.4-.53H8.34L7.94,2h.22L7,3.49H6.8L7,3.22H6.38L6.55,3h.53L8.42,1.22H7.89L8,1h.58L9.07.42H8.49L8.8,0H8.29L8,.42H7.38L6.94,1h.58l-.15.21H6.86L5.52,3H6l-.17.22H5.23l-.45.6h.63l-.54.72h.52l.54-.72h.6l-.21.28H7.63l-.32.44h.53l.33-.44h.21l.46-.61H8.63L9.78,2ZM6.91,1.69h.17l-.15.19H6.77Zm-.47.64H6.6l-.15.19H6.29Zm1-.45H7.32l.14-.19h.18ZM7,2.52H6.84L7,2.33h.17ZM11.18.13H9.53L8.66,1.28h1.65ZM10.1.8H9.56L9.71.61h.53Zm-1,1.35H8.55L8.69,2h.56Zm-.49.66H8.05l.14-.19h.56Zm-1.07.68.16-.21h.55l-.16.21Z" style="fill:#e9b54d"/></g></svg>