<svg xmlns="http://www.w3.org/2000/svg" viewBox="0 0 140.34 31.12"><g id="af55f749-93cc-4c07-8663-7d152e5cfa07" data-name="圖層 1"><g id="b26f748f-457d-4431-9a9e-05362af21f5c" data-name="rectangle-logo"><path d="M16.46,19.14a4.06,4.06,0,0,1,1.93-2.62c1.95-1.18,3.61-.17,4.49,1.73a5,5,0,0,1,.22,3.88c-.09.19.34-.85,0-1.41a1.23,1.23,0,0,0-1.15-.56,1.32,1.32,0,0,0-.55.18,4.22,4.22,0,0,0-1.45,2.17,2.71,2.71,0,0,1-.78,1.16,1.31,1.31,0,0,1-1.53.06,3.71,3.71,0,0,1-.56-.49,3.25,3.25,0,0,1-.49-.77A5.17,5.17,0,0,1,16.46,19.14Z" style="fill:#e8b34d"/><path d="M16.32,12.53c.21-5.62-4.21-6.4-6.6-6.68a19.07,19.07,0,0,1-4.11-.53C3.19,4.37,3.17,1.81,3.93,0c.33,1.44,2.56,1.73,4.3,1.68a7.81,7.81,0,0,1,5.92,2C15.53,5,17.68,9.15,16.32,12.53Z" style="fill:#e8b34d"/><path d="M21.17,24.92a3.86,3.86,0,0,1-4.05-.12,4,4,0,0,1-1.24-1.32c-1.72-2.86-1-6.55-.83-8.17a9.93,9.93,0,0,0-.5-4.64,4,4,0,0,0-3.12-2.59,5.83,5.83,0,0,0-3.25.54,10.34,10.34,0,0,0-2.74,1.66c-2.53,2-4.35,5.68-5,9.24-.92,4.9-.18,7,.48,8.19a3.34,3.34,0,0,0,4.53.95A13.47,13.47,0,0,0,7.79,30a10.57,10.57,0,0,0,9.82-.23,11.41,11.41,0,0,0,5.72-8.75C23.39,20.36,23,23.86,21.17,24.92ZM7.86,28.68a4.53,4.53,0,0,1-1-.8A7.5,7.5,0,0,0,8,27.28,3.94,3.94,0,0,0,9.18,26c-.38.81-1.06,1.44-.8,1.88,1.07,1.88,4.64,2.67,5,2.82A8.93,8.93,0,0,1,7.86,28.68Zm5.56-13.45A22.44,22.44,0,0,1,10,22.88a19.18,19.18,0,0,1-3.53,3.63C3.05,29.4,2,27.26,2,27.26c1.2.91,3.21-.71,3.28-2.49C4,23.31,2.8,21.12,4.56,17.59a6.82,6.82,0,0,1,6.91-3.95c.94-2.94.26-4.4-1.3-4.74A2.43,2.43,0,0,1,12.86,10,7.15,7.15,0,0,1,13.42,15.23Z" style="fill:#e8b34d"/><path d="M33.45,28.14a1.1,1.1,0,0,1,.06-.26c0-.12.06-.23.08-.35a.81.81,0,0,0,0-.31c0-.09-.05-.14-.12-.14a1.51,1.51,0,0,0-.59.15,1.2,1.2,0,0,1-.59.15.37.37,0,0,1-.23-.05.17.17,0,0,1-.06-.1,1.22,1.22,0,0,0,0-.17.31.31,0,0,0-.07-.18.26.26,0,0,0-.16-.09l-.26,0H31c-.07,0-.12,0-.15.14a1.24,1.24,0,0,0,0,.33c0,.12,0,.24,0,.35v.23s-.06.11-.18.17a2,2,0,0,1-.4.17,4.29,4.29,0,0,1-.44.13,1.4,1.4,0,0,1-.28.06.15.15,0,0,1-.16-.17,2,2,0,0,1,0-.25l-.05-1.76c0-.56,0-1.12-.05-1.69s0-1.12,0-1.68a.25.25,0,0,1,0-.12.12.12,0,0,1,.1-.05.94.94,0,0,1,.28.1l.51.22a5.64,5.64,0,0,0,.62.21,1.87,1.87,0,0,0,.62.1h.32l.17-.18.23-.24a1.64,1.64,0,0,1,.25-.21.3.3,0,0,1,.19-.1.77.77,0,0,1,.36.12,2.6,2.6,0,0,1,.45.28,2,2,0,0,1,.37.39.53.53,0,0,1,.15.34c0,.05,0,.1-.11.14a.19.19,0,0,0-.1.17V26.7a.11.11,0,0,0,0,.08,0,0,0,0,0,0,0c.13,0,.23-.12.31-.36a5.12,5.12,0,0,0,.2-.84c0-.31.09-.61.11-.92s0-.5,0-.6V17.49a.14.14,0,0,0-.12-.16H28.89a.14.14,0,0,1-.15-.1c0-.06,0-.1.08-.1h2.92l.11-.05a2.43,2.43,0,0,0,.2-.25c.09-.13.19-.26.28-.4a4.43,4.43,0,0,1,.28-.37c.08-.11.16-.17.19-.17A.76.76,0,0,1,33,16l.28.19.28.21.2.15a6.54,6.54,0,0,0,1.89.84,8.34,8.34,0,0,0,2,.25h.37a.58.58,0,0,1,.19,0q.09,0,.09.09a1,1,0,0,1-.34,0H36.2c-.06,0-.09,0-.09.1a.72.72,0,0,0,0,.15V19.1a3.44,3.44,0,0,0,0,.56,4.13,4.13,0,0,0,.07.49q0,.15.15.15h.27a.54.54,0,0,0,.25,0l.15-.13.23-.22.23-.21a.38.38,0,0,1,.18-.09.45.45,0,0,1,.19.11l.26.25.28.26a1.06,1.06,0,0,0,.26.17c.09,0,.13,0,.13-.09,0-1,0-2-.1-3s-.1-2-.1-3a.14.14,0,0,1,.11-.16h0l.46,0,.73.08a5,5,0,0,1,.67.14c.2.06.28.12.28.19a.11.11,0,0,1-.07.11l-.15.05-.15,0a.08.08,0,0,0-.07.1v2.47c0,.07,0,.11.13.11a.54.54,0,0,0,.34-.12,1.12,1.12,0,0,0,.25-.28,1.17,1.17,0,0,0,.16-.36,1.15,1.15,0,0,0,.06-.37,1.19,1.19,0,0,0-.06-.37,2.78,2.78,0,0,0-.12-.38,2.67,2.67,0,0,1-.12-.33A.71.71,0,0,1,41,15a.13.13,0,0,1,.06-.1l.11,0a2.33,2.33,0,0,1,.53.06,2.26,2.26,0,0,1,.56.17,1.45,1.45,0,0,1,.45.33.74.74,0,0,1,.18.49.59.59,0,0,1-.09.32,2,2,0,0,1-.18.23l-.19.21a.38.38,0,0,0-.09.25.29.29,0,0,0,.12.24,2,2,0,0,0,.25.18,1.4,1.4,0,0,1,.26.16.27.27,0,0,1,.12.22s0,0,0,.06l-.08,0H40.64a.12.12,0,0,0-.12.11.69.69,0,0,0,0,.25,1.31,1.31,0,0,0,0,.28v.76c0,.25,0,.51,0,.79s0,.52.08.75a1,1,0,0,0,.16.47h.06c.12,0,.22-.09.28-.28a4.4,4.4,0,0,0,.13-.63c0-.24,0-.47,0-.7a2.61,2.61,0,0,1,.05-.48c0-.09.06-.13.13-.13a1.06,1.06,0,0,1,.35.09l.54.21a4.41,4.41,0,0,1,.54.24,2,2,0,0,1,.32.18l0,.08a.41.41,0,0,1-.17.22.77.77,0,0,0-.21.23,1,1,0,0,0-.13.28l-.09.26c-.09.28-.19.56-.28.84s-.2.56-.31.84a7.36,7.36,0,0,1-.42.9,7.25,7.25,0,0,0-.4.9,1.86,1.86,0,0,0,.08.41,4.16,4.16,0,0,0,.23.54,1.81,1.81,0,0,0,.32.46.5.5,0,0,0,.34.2.33.33,0,0,0,.26-.18,2.67,2.67,0,0,0,.22-.36l.19-.37c.06-.11.1-.17.13-.17s0,0,.05.07,0,.08,0,.12v1.56a.49.49,0,0,0,.05.2,1.49,1.49,0,0,1,.11.28l.11.28a.7.7,0,0,1,0,.25.51.51,0,0,1-.28.53,1.33,1.33,0,0,1-.62.13,1.3,1.3,0,0,1-1-.34,3.13,3.13,0,0,1-.57-.78c-.14-.28-.28-.56-.41-.8a.69.69,0,0,0-.51-.41s-.08,0-.17.13l-.35.31-.47.44c-.17.15-.33.29-.5.42s-.32.24-.46.33a.7.7,0,0,1-.36.14l0,0a1.43,1.43,0,0,1,.31-.42c.2-.21.41-.46.65-.74a9.23,9.23,0,0,0,.65-.86,1.52,1.52,0,0,0,.28-.82,3,3,0,0,0,0-.42c0-.21-.07-.44-.11-.71s-.1-.56-.16-.84-.11-.57-.17-.85-.12-.48-.18-.67a1.69,1.69,0,0,0-.12-.36.14.14,0,0,0-.19,0,.14.14,0,0,0-.06.13v.83c0,.19,0,.39,0,.59s0,.47,0,.77,0,.61-.05.92a7.39,7.39,0,0,1-.15,1,3.19,3.19,0,0,1-.3.85,1.87,1.87,0,0,1-.52.6,1.32,1.32,0,0,1-.8.23c-.1,0-.16-.08-.16-.25s0-.34,0-.54a1.67,1.67,0,0,0-.15-.54.48.48,0,0,0-.47-.25l-.09.06-.36.78a6.53,6.53,0,0,1-.35.56,4.91,4.91,0,0,1-.4.53l-.56.63-.1.11L33.8,28a.93.93,0,0,1-.15.13.11.11,0,0,1-.12,0ZM32.4,18.21a.92.92,0,0,1,.24.13l.34.27.33.28.22.2,0,.11v.09s0,.05-.08.05h-4a.08.08,0,0,1-.08-.06v0a.07.07,0,0,1,.08-.08h2s.07,0,.14-.13l.24-.28a3.33,3.33,0,0,0,.24-.32l.14-.2Zm0,2.06a1.34,1.34,0,0,1,.28.18l.4.32c.12.11.24.23.35.35s.16.19.16.23l-.05,0h-4a.08.08,0,0,1,0-.16h2s.09,0,.17-.12l.23-.28c.08-.1.15-.21.22-.31l.15-.21Zm-2.89-5,.11,0H31.3a.36.36,0,0,0,.3-.17c.08-.11.15-.23.22-.35a2.6,2.6,0,0,1,.21-.36.31.31,0,0,1,.26-.16.61.61,0,0,1,.26.15l.4.36.38.38a.79.79,0,0,1,.17.24s0,.07-.09.1a.57.57,0,0,1-.22.07l-.22,0h-.15c-.5,0-1,0-1.49-.06s-1-.05-1.48-.05h-.2a.16.16,0,0,1-.17-.1Zm1.55,8.32a.14.14,0,0,0-.16.11v2.69a.14.14,0,0,0,.08.13.28.28,0,0,0,.15,0h.57a.28.28,0,0,0,.15,0,.14.14,0,0,0,.08-.13V23.72a.14.14,0,0,0-.12-.16h0Zm6-2.65c0-.19,0-.3-.08-.32a1,1,0,0,0-.35,0c-.24,0-.38,0-.4.12a1.56,1.56,0,0,0,0,.43c0,.43,0,.86,0,1.28s-.07.85-.14,1.28a3.72,3.72,0,0,1-.11.48,1.45,1.45,0,0,0-.08.5.2.2,0,0,0,.13.21.76.76,0,0,0,.25.06.81.81,0,0,0,.5-.16.91.91,0,0,0,.28-.39,2.4,2.4,0,0,0,.12-.53,4.32,4.32,0,0,0,0-.5,6.45,6.45,0,0,0,0-.76c0-.25,0-.5,0-.75Z" style="fill:#e8b34d"/><path d="M49.71,19.5a.3.3,0,0,1-.17.24.23.23,0,0,0-.15.22l-.11,7.27a.13.13,0,0,0,.12.15h1.91a.13.13,0,0,0,.15-.12V16a.14.14,0,0,0-.12-.16H46.07c-.06,0-.08,0-.08-.07a.06.06,0,0,1,0-.08h9.25s.13-.07.27-.21.28-.3.41-.47l.41-.51.26-.33.08,0,.22.13a4.45,4.45,0,0,1,.38.28l.45.36.42.37c.11.1.22.2.32.31a.66.66,0,0,1,.12.17s0,0,0,0l-.11,0H53.89a.25.25,0,0,0-.17.11.32.32,0,0,0-.09.17v4.7a.57.57,0,0,0,0,.18.4.4,0,0,1,0,.37.58.58,0,0,0,0,.19v5.66a.13.13,0,0,0,.12.15h2.18c.07,0,.17-.08.29-.24s.26-.34.4-.53.28-.36.39-.52.22-.24.28-.24a1.46,1.46,0,0,1,.33.22q.32.21.66.48l.66.52a3.38,3.38,0,0,1,.35.31l0,0s0,.08-.09.11a.24.24,0,0,1-.14,0H45.25a.16.16,0,0,1-.14-.08c0-.05,0-.08,0-.08H47a.13.13,0,0,0,.15-.11V19.39a.15.15,0,0,1,.11-.16h0a9.18,9.18,0,0,1,1.17.07l1.18.13ZM54,21.23s0,0,0,0a4.76,4.76,0,0,0,.74-.2,1.74,1.74,0,0,0,.41-.2.72.72,0,0,0,.21-.25l.15-.28c.06-.1.14-.21.21-.31a1.79,1.79,0,0,1,.43-.35.2.2,0,0,1,.11,0,1.86,1.86,0,0,1,.28.21l.58.46.61.49a3.37,3.37,0,0,1,.32.28.16.16,0,0,1,0,.18.15.15,0,0,1-.15.1H54.17a.46.46,0,0,1-.19-.08Z" style="fill:#e8b34d"/><path d="M65.6,20.22a.12.12,0,0,0-.15,0,.16.16,0,0,0-.08.15v7.54c0,.11-.08.21-.23.28a2.43,2.43,0,0,1-.54.17,5.4,5.4,0,0,1-.58.09,2.83,2.83,0,0,1-.41,0,.14.14,0,0,1-.16-.11V22.51a.08.08,0,0,0-.06-.09.43.43,0,0,0-.29.19l-.36.44c-.12.16-.24.33-.34.49a2.22,2.22,0,0,1-.28.33l-.41.35a3.34,3.34,0,0,0-.4.35l-.08,0,0-.05A11.94,11.94,0,0,0,61.83,23a16,16,0,0,0,.48-1.63c0-.23.1-.5.15-.78s.11-.56.17-.84.13-.56.21-.84a3.7,3.7,0,0,1,.28-.72.67.67,0,0,1,.14-.19.26.26,0,0,0,.1-.2V14.22a.13.13,0,0,1,.11-.15h0c.36,0,.72,0,1.08,0l1.07.15.08.06a.35.35,0,0,1-.17.25.27.27,0,0,0-.16.22v2.6a.16.16,0,0,0,0,.09s0,.05.07.05a.25.25,0,0,0,.18-.1,1,1,0,0,0,.17-.24l.15-.28a.64.64,0,0,1,.13-.19l.08,0a.3.3,0,0,1,.23.14.35.35,0,0,0,.31.14.12.12,0,0,0,.11,0l.07-.07.06-.08a.15.15,0,0,1,.11,0h2.68a.13.13,0,0,0,.15-.11v-2.3a.13.13,0,0,1,.11-.15h1.06a4.09,4.09,0,0,1,1,.15l.08,0a.08.08,0,0,1,0,.07.19.19,0,0,1-.07.12l-.1.09,0,.11v1.9a.08.08,0,0,0,.08.09h0a.32.32,0,0,0,.14,0,1.36,1.36,0,0,0,.79-.21,2.52,2.52,0,0,0,.51-.47,4,4,0,0,0,.32-.48c.08-.14.16-.22.23-.22a1.41,1.41,0,0,1,.31.21c.18.14.36.3.56.48s.37.34.53.49a.94.94,0,0,1,.23.28s0,.07-.06.08H69.11A.21.21,0,0,0,69,17a.12.12,0,0,1-.11.08.42.42,0,0,1-.22-.05.39.39,0,0,0-.21-.06h-.85a2.13,2.13,0,0,0-.44.07c-.13,0-.2.1-.2.19a.32.32,0,0,0,.09.17,1.86,1.86,0,0,0,.19.22l.21.22a.86.86,0,0,1,.13.14.18.18,0,0,1,0,.12c0,.06,0,.09-.08.09H65.4a.43.43,0,0,0-.09.22,6.24,6.24,0,0,0,0,.69c0,.26.05.49.07.7a.14.14,0,0,0,.06.12,1.73,1.73,0,0,0,.3.16l.6.26.59.24.3.1a.39.39,0,0,0,.22-.11,1.38,1.38,0,0,0,.19-.28,4.73,4.73,0,0,0,.24-.5c.09-.19.17-.4.25-.62s.18-.43.25-.64l.21-.56.14-.39a.3.3,0,0,1,0-.1.08.08,0,0,1,.09,0l.38.21.62.31.59.35a1.67,1.67,0,0,1,.28.18.16.16,0,0,1,0,.09c0,.05-.07.12-.21.23s-.3.25-.5.41l-.69.49c-.24.18-.48.34-.71.5l-.62.42-.36.24a.21.21,0,0,0-.08.19.93.93,0,0,0,0,.24c0,.08,0,.17.07.26a1.7,1.7,0,0,1,0,.22.85.85,0,0,1-.28.64.91.91,0,0,1-.64.24.58.58,0,0,1-.56-.28,1.87,1.87,0,0,1-.23-.65c0-.26-.09-.53-.14-.81A1.44,1.44,0,0,0,65.6,20.22Zm-4-2.22h1.12a.82.82,0,0,1,.22,0l0,.05-.11,0H61.56l-.06-.06Zm14.21,8.16-.51.48a2.33,2.33,0,0,0-.42.57,2.08,2.08,0,0,0-.23.53,3.62,3.62,0,0,1-.2.55.41.41,0,0,0,0,.09.11.11,0,0,1-.09.05,1.4,1.4,0,0,1-.47-.24c-.24-.15-.5-.32-.78-.52l-.79-.56a4.54,4.54,0,0,1-.48-.39c-.11-.11-.21-.22-.31-.34a2.06,2.06,0,0,0-.31-.28.29.29,0,0,0-.16,0,.4.4,0,0,0-.15,0c-.24.22-.5.45-.77.67a10.72,10.72,0,0,1-.88.62,6.89,6.89,0,0,1-.93.49,4.27,4.27,0,0,1-1,.3l-.34.07a.57.57,0,0,1-.34,0l0,0,.56-.39.75-.52c.26-.18.53-.38.8-.59a8.67,8.67,0,0,0,.72-.64,4.06,4.06,0,0,0,.51-.65,1,1,0,0,0,.2-.6,1.3,1.3,0,0,0-.17-.57c-.12-.23-.25-.5-.39-.79s-.27-.58-.39-.88A2.21,2.21,0,0,1,69,21.7a.31.31,0,0,1,0-.19,1.9,1.9,0,0,1,.3.44l.45.78a7.66,7.66,0,0,0,.5.76c.17.22.31.34.44.35s.17-.09.28-.31a6.92,6.92,0,0,0,.28-.76c.08-.28.15-.56.21-.83s.11-.45.13-.54,0-.23.06-.35a2.09,2.09,0,0,1,.08-.34c0-.07.06-.11.12-.11a2,2,0,0,1,.43.08l.61.2.62.24.44.17.08,0s0,0,0,.08a1.47,1.47,0,0,1-.14.28c-.09.17-.21.36-.36.59l-.45.73-.46.75c-.14.24-.26.45-.35.63a.93.93,0,0,0-.14.36c0,.1.08.2.24.28a2.22,2.22,0,0,0,.6.24c.24.08.51.14.8.21l.84.2c.29.06.51.12.71.18a.81.81,0,0,1,.39.2Zm-1.25-5.47a1,1,0,0,1-.61-.35,6.94,6.94,0,0,1-.72-.81c-.24-.31-.46-.62-.67-.92l-.44-.67a.26.26,0,0,1-.07-.15.1.1,0,0,1,.07-.09h.12a5.07,5.07,0,0,1,1,.12,3.91,3.91,0,0,1,1,.37,2.49,2.49,0,0,1,.82.65,1.36,1.36,0,0,1,.33,1,.82.82,0,0,1-.74.9h-.15Z" style="fill:#e8b34d"/><path d="M77.88,17.29h3.69l-.11,0-.11,0H77.88l0-.05Zm9,7.37a.82.82,0,0,0,.44.42,5.87,5.87,0,0,0,.9.37c.35.11.73.22,1.12.32l1.14.28a8.72,8.72,0,0,1,.9.26.82.82,0,0,1,.44.23s0,.08-.09.12a5.08,5.08,0,0,0-.51.41,3.75,3.75,0,0,0-.34.36,3.57,3.57,0,0,0-.3.38c-.09.14-.22.32-.37.52a.16.16,0,0,1-.14.08,2.4,2.4,0,0,1-1-.3,8.74,8.74,0,0,1-1.17-.72c-.38-.28-.75-.57-1.1-.87l-.87-.75a.16.16,0,0,0-.11-.05,1.14,1.14,0,0,0-.47.19c-.22.12-.48.27-.76.45l-.92.58c-.34.22-.67.41-1,.59s-.64.33-1,.47a2.22,2.22,0,0,1-.8.18h-.1s-.07,0-.07-.06a.15.15,0,0,1,.08-.12l.14-.09q1-.59,1.86-1.23a11.18,11.18,0,0,0,1.66-1.49l.26-.28a.87.87,0,0,0,.2-.31.08.08,0,0,0,0-.08c-.1-.17-.21-.38-.34-.65s-.26-.55-.39-.84a8,8,0,0,1-.31-.85,2.16,2.16,0,0,1-.14-.67v-.08a.06.06,0,0,1,0-.06h0s.09.06.17.17l.3.42c.11.16.23.35.36.56s.24.39.36.56a3.64,3.64,0,0,0,.31.44.56.56,0,0,0,.21.21h.17l.11-.12A4.12,4.12,0,0,0,86.1,23c.16-.33.32-.68.49-1.07s.31-.73.43-1.07a2.78,2.78,0,0,0,.19-.64c0-.08,0-.14-.06-.16A.33.33,0,0,0,87,20H86a6.87,6.87,0,0,0-.77,0c-.28,0-.53,0-.76,0a4.37,4.37,0,0,0-.56,0l-.25,0a1.6,1.6,0,0,0-.23.38c-.11.22-.24.49-.4.84l-.51,1.08c-.18.39-.37.77-.54,1.12s-.34.69-.5,1a5.73,5.73,0,0,1-.39.64c-.22.28-.45.54-.69.81s-.5.52-.75.76c-.07.06-.18.15-.31.28s-.28.24-.44.36-.29.21-.44.31a.78.78,0,0,1-.36.13s-.08,0-.08-.06a.19.19,0,0,1,0-.08l0-.06c.53-.7,1-1.35,1.34-2a13.74,13.74,0,0,0,.9-1.85,16,16,0,0,0,.66-1.91c.18-.67.35-1.44.52-2.29,0-.28.09-.56.14-.85s.08-.56.13-.84a2.47,2.47,0,0,0,.06-.29,1.28,1.28,0,0,1,.07-.28.7.7,0,0,1,.09-.17A.23.23,0,0,0,82,17V14.13a.14.14,0,0,1,.12-.15h.55l.73,0,.71.07a2.43,2.43,0,0,1,.47.08l.08,0s0,0,0,.07l0,.06-.11.11-.11.12-.07.07-.05.11a11.94,11.94,0,0,1-.24,1.88c-.14.62-.26,1.24-.38,1.87,0,.05,0,.15,0,.3s0,.28,0,.45a2.8,2.8,0,0,0,0,.41c0,.11.06.17.13.17.5,0,1,0,1.49-.05s1-.06,1.48-.06h.18a.2.2,0,0,0,.16,0l.21-.2.37-.34.35-.31a.46.46,0,0,1,.21-.13.86.86,0,0,1,.33.23l.32.32.2.19.32.31.28.28a.38.38,0,0,1,.13.18.08.08,0,0,1,0,.07s0,0,0,.05a4.8,4.8,0,0,0-.82,1c-.23.35-.44.71-.65,1.07l-.6,1.09a5.68,5.68,0,0,1-.72,1Zm4.64-7.45a.15.15,0,0,1,0,.11.11.11,0,0,1-.1.06H84.58a.14.14,0,0,1-.1-.05l-.1-.07a.09.09,0,0,1,.08,0h3.79q.15,0,.36-.24a5.53,5.53,0,0,0,.41-.52c.13-.19.26-.37.36-.53s.19-.24.24-.24a.69.69,0,0,1,.17.1l.34.26.43.33.44.35.36.3a.77.77,0,0,1,.18.18Z" style="fill:#e8b34d"/><path d="M93.74,18a.94.94,0,0,1,.17-.31,2.83,2.83,0,0,0,.2-.28,6.08,6.08,0,0,0,.61-1.12l.48-1.19a1.89,1.89,0,0,0,.09-.25c0-.12.08-.25.13-.38a2.52,2.52,0,0,1,.15-.34c.06-.09.12-.14.17-.14a2.54,2.54,0,0,1,.37.1l.65.24.66.27a3,3,0,0,1,.37.17l0,.07a.2.2,0,0,1-.11.11l-.2.1a.69.69,0,0,0-.18.16.39.39,0,0,0-.09.26.14.14,0,0,0,.1.12l.2.06.24,0,.17,0a1.2,1.2,0,0,1,.81.54,1.81,1.81,0,0,1,.25.94.65.65,0,0,1-.54.72H98.3a1.47,1.47,0,0,1-.36,0,.67.67,0,0,1-.33-.15.71.71,0,0,1-.07-.32c0-.18,0-.37-.07-.58a2.23,2.23,0,0,0-.16-.56A.35.35,0,0,0,97,16s-.13.05-.25.15l-.42.38c-.17.15-.36.32-.57.49a7.79,7.79,0,0,1-.63.51,3.64,3.64,0,0,1-.66.38,1.75,1.75,0,0,1-.64.18Zm2.09-.21s.09.06.11.15,0,.19.06.3a1.47,1.47,0,0,0,.08.3c0,.1.08.14.14.14h3.87l.1,0,0-.07s0-.09,0-.2,0-.21,0-.31a1.54,1.54,0,0,0,0-.3,1,1,0,0,0-.05-.16l-.11-.08a.11.11,0,0,1-.07-.12.52.52,0,0,1,.14-.19l.31-.36c.11-.14.21-.29.3-.41a.52.52,0,0,0,.14-.31.08.08,0,0,0-.07-.08l-.11,0a2.87,2.87,0,0,0-.41-.05l-.58,0a4.37,4.37,0,0,1-.56-.06.49.49,0,0,1-.31-.11l-.06,0a1.38,1.38,0,0,0,.19-.28l.22-.37.23-.33a.46.46,0,0,1,.24-.17.94.94,0,0,1,.35.2c.12.12.24.24.35.37a3.61,3.61,0,0,0,.36.4,1.93,1.93,0,0,0,.36.28.45.45,0,0,0,.39-.28,3.11,3.11,0,0,0,.28-.62c.09-.23.16-.44.23-.63s.13-.31.19-.34a3.71,3.71,0,0,0,.46.19l.72.28.66.26a1,1,0,0,1,.33.16c0,.05-.06.09-.14.13l-.24.12a1,1,0,0,0-.24.17.32.32,0,0,0-.11.24.77.77,0,0,0,0,.15.11.11,0,0,0,.12.07,6.56,6.56,0,0,1,.76,0,1.85,1.85,0,0,1,.65.18,1,1,0,0,1,.44.44,1.44,1.44,0,0,1,.17.76.62.62,0,0,1-.25.58,1.08,1.08,0,0,1-.63.16.67.67,0,0,1-.49-.14.91.91,0,0,1-.24-.37,1.91,1.91,0,0,1-.12-.47,3.55,3.55,0,0,0-.09-.47,1.22,1.22,0,0,0-.18-.36.43.43,0,0,0-.36-.15,1.74,1.74,0,0,0-.51.13,5.94,5.94,0,0,0-.67.33,4.14,4.14,0,0,0-.61.42.61.61,0,0,0-.26.4l0,.07h.28a3.13,3.13,0,0,1,.42,0l.39.06c.11,0,.17.06.17.1s0,.07-.1.13l-.12.12,0,.1c0,.07,0,.14,0,.2a1.41,1.41,0,0,0,0,.29,1.27,1.27,0,0,0,0,.26c0,.07.07.11.14.11h3a.48.48,0,0,0,.23-.13,3.28,3.28,0,0,0,.34-.31l.33-.34c.1-.11.18-.18.22-.22l.07,0,.08,0a3.83,3.83,0,0,0,.28.29l.49.47.45.47c.13.14.19.22.19.25s-.1.14-.31.26a7.92,7.92,0,0,1-.72.35c-.27.12-.53.23-.78.32a2.11,2.11,0,0,1-.49.14s-.05,0-.06-.06a.36.36,0,0,1,0-.1v-.41a1.59,1.59,0,0,1,.07-.38.32.32,0,0,0,0-.34l-.07,0H96.39l-.11,0h0a.47.47,0,0,0-.07.28,1.82,1.82,0,0,1,0,.33,4.71,4.71,0,0,1-.09.52,1.66,1.66,0,0,1-.19.48,1,1,0,0,1-.33.36,1.07,1.07,0,0,1-.52.14,1.18,1.18,0,0,1-.72-.22.8.8,0,0,1-.28-.68,1.64,1.64,0,0,1,0-.23.6.6,0,0,1,.09-.22,2.05,2.05,0,0,1,.46-.47,4,4,0,0,0,.47-.45,3,3,0,0,0,.32-.47,3.08,3.08,0,0,1,.32-.48Zm7.46,2.5.18-.19.28-.3.28-.29a.5.5,0,0,1,.17-.12.8.8,0,0,1,.34.18,4.73,4.73,0,0,1,.53.41,5.27,5.27,0,0,1,.48.45c.14.14.2.24.19.28a.22.22,0,0,1-.08.15l-.13.15,0,.11V23a.3.3,0,0,1-.23.28,2.67,2.67,0,0,1-.57.16l-.62.07h-.44c-.08,0-.11-.06-.15-.17l-.09-.25-.06,0h-3.9a.16.16,0,0,1-.17-.13v0s0,0,0,0h4a.13.13,0,0,0,.15-.12V20.73a.13.13,0,0,0-.12-.15H99.08a.14.14,0,0,0-.16.12V27a.15.15,0,0,0,.12.16h4.64a.06.06,0,0,1,.08.05v0s0,.07-.08.07H99s0,0-.08.11-.07.15-.11.24l-.11.26a.42.42,0,0,1-.1.17.88.88,0,0,1-.28.17,2.34,2.34,0,0,1-.38.09l-.4,0H97.2l-.17,0s-.07-.06-.07-.14V27.1c0-.38,0-.76,0-1.15,0-.82,0-1.65,0-2.47s0-1.64,0-2.46c0-.21,0-.41,0-.61V19.8a.27.27,0,0,1,0-.12.08.08,0,0,1,.1-.05,1.15,1.15,0,0,1,.31.11l.54.26.62.25a1.81,1.81,0,0,0,.56.12h4.18Zm.51,4.21s.1,0,.19-.12a3.69,3.69,0,0,0,.28-.28l.28-.28c.09-.1.15-.13.19-.13a1.52,1.52,0,0,1,.47.1,2.78,2.78,0,0,1,.56.24,1.82,1.82,0,0,1,.48.34.65.65,0,0,1,.19.42c0,.06,0,.13-.16.19a.3.3,0,0,0-.16.29v2.36a.34.34,0,0,1-.19.3,1.43,1.43,0,0,1-.44.15,2.83,2.83,0,0,1-.5.05h-.64a.18.18,0,0,1-.2-.13,1.76,1.76,0,0,1-.07-.56c0-.29,0-.6,0-.94s0-.66,0-1,0-.54,0-.68a.14.14,0,0,0-.11-.16H99.33a.11.11,0,0,1-.12-.1c0-.07,0-.1.12-.1Zm2.41-10a3.55,3.55,0,0,1,.31.23l.52.44c.19.15.36.28.5.41l.26.23c0,.06-.15.11-.4.15a5.91,5.91,0,0,1-.84,0,4.88,4.88,0,0,1-.85-.07c-.25,0-.37-.11-.37-.2a.7.7,0,0,1,.11-.23l.26-.37c.1-.14.2-.26.29-.37a1.64,1.64,0,0,1,.21-.25Z" style="fill:#e8b34d"/><path d="M110.78,22.28l-.2-.37c-.09-.17-.19-.34-.3-.53l-.28-.51a1.73,1.73,0,0,1-.14-.31.45.45,0,0,1,.23,0H111a.52.52,0,0,0,.49-.2,2.64,2.64,0,0,0,.18-.38c.1-.22.2-.46.31-.72s.21-.5.28-.72a1.71,1.71,0,0,0,.13-.38.1.1,0,0,0-.1-.1h0a.89.89,0,0,0-.23,0,1.09,1.09,0,0,0-.25,0l-.18,0a.68.68,0,0,1-.5-.22,1.66,1.66,0,0,1-.38-.53,3.25,3.25,0,0,1-.24-.64,2.62,2.62,0,0,1-.09-.56c0-.08.06-.12.16-.12a1.33,1.33,0,0,1,.34,0l.39.12a1.4,1.4,0,0,0,.28.06c.08,0,.14-.1.2-.28s.11-.45.15-.68.07-.51.09-.74l.06-.48.06-.05h.06l.37.15.56.23.52.24c.15.08.23.13.23.17a.15.15,0,0,1-.1.14l-.16.07a1.27,1.27,0,0,0-.25.21l-.47.43-.47.44a1.61,1.61,0,0,0-.22.23.36.36,0,0,0,0,.23,2,2,0,0,0,.1.32,1.17,1.17,0,0,0,.17.28.25.25,0,0,0,.2.12.26.26,0,0,0,.19-.13,1.51,1.51,0,0,0,.15-.28c0-.11.09-.22.13-.33a1.87,1.87,0,0,1,.08-.25l.08,0a.62.62,0,0,1,.3.09,3.55,3.55,0,0,1,.39.2l.39.26a1.64,1.64,0,0,1,.25.21l0,.08a1.5,1.5,0,0,1-.28.51,6.47,6.47,0,0,1-.5.56l-.63.59-.64.58c-.2.18-.38.35-.53.51a1.39,1.39,0,0,0-.3.43l.06.06H113c.09,0,.13-.05.12-.16a2.25,2.25,0,0,0-.06-.36,2.25,2.25,0,0,1-.06-.36c0-.1,0-.16.13-.16a.61.61,0,0,1,.37.15l.38.32q.19.18.39.33a.67.67,0,0,0,.38.15.23.23,0,0,0,.17-.1.85.85,0,0,0,0-.23c0-.14,0-.32,0-.56s0-.46.05-.71,0-.49,0-.72,0-.44,0-.61,0-.28,0-.34a3.71,3.71,0,0,0-.1-.88,4.34,4.34,0,0,1-.12-.88l.07-.05a.63.63,0,0,1,.29.1l.42.24c.15.1.3.18.44.26a.68.68,0,0,0,.31.11.12.12,0,0,0,.1,0c0-.1,0-.19,0-.28V14.19c0-.11.05-.16.14-.16a2.06,2.06,0,0,1,.35,0l.43.06.44.08.35.07.1,0s0,0,0,.07a1.35,1.35,0,0,1-.3.28c-.17.14-.34.28-.52.45l-.48.45c-.13.14-.19.23-.16.28a.19.19,0,0,0,.2.11h.25a.75.75,0,0,0,.41-.12,2.91,2.91,0,0,0,.33-.26l.24-.27c.06-.08.12-.12.16-.12a1,1,0,0,1,.3.19l.55.45a4.61,4.61,0,0,0,.62.44,1.09,1.09,0,0,0,.53.19q.24,0,.36-.36a5.45,5.45,0,0,0,.18-.8c0-.28.08-.56.12-.79s.12-.37.22-.37a1.39,1.39,0,0,1,.28.12l.52.25c.19.09.37.19.53.28l.28.16a0,0,0,0,0,0,0l0,0s-.11.11-.28.21-.38.21-.6.35l-.62.41a1,1,0,0,0-.35.42v.1a1.07,1.07,0,0,1,.14.16,3,3,0,0,0,.18.24,2,2,0,0,0,.2.21.23.23,0,0,0,.15.1.29.29,0,0,0,.24-.11.79.79,0,0,0,.14-.23,1.71,1.71,0,0,0,.09-.3.64.64,0,0,1,.12-.25l.06,0,.28.13.46.24.48.28.32.18,0,.08s0,0,0,0l-.06.05-.86.77-1.05,1a13.75,13.75,0,0,0-1,1v.06a.09.09,0,0,0,0,.05c0,.1,0,.14.16.14h.46a1.94,1.94,0,0,0,.33,0l.32,0,.18,0a.16.16,0,0,0,.08-.2,1.28,1.28,0,0,0-.07-.28,2.56,2.56,0,0,1-.05-.27c0-.07,0-.11.15-.11a1.42,1.42,0,0,1,.56.15,3.12,3.12,0,0,1,.56.39,2.21,2.21,0,0,1,.44.52,1.12,1.12,0,0,1,.18.56.93.93,0,0,1-.25.63.77.77,0,0,1-.62.28.69.69,0,0,1-.74-.64v-.47a.68.68,0,0,0,0-.2c0-.05,0-.08-.06-.08h-.14a2.19,2.19,0,0,0-.44.31l-.58.53-.54.5c-.16.15-.25.22-.28.22a.11.11,0,0,1-.09,0l-.08-.07a2.65,2.65,0,0,0-.33-.65,4.13,4.13,0,0,1-.36-.65v-.09a.23.23,0,0,1,.16-.11l.2,0a.9.9,0,0,0,.22-.06.42.42,0,0,0,.21-.16l.16-.3c.09-.17.18-.35.28-.56s.19-.38.26-.54a1.69,1.69,0,0,0,.12-.28.33.33,0,0,0,0-.14s0,0-.1-.06a1.3,1.3,0,0,0-.39-.09.87.87,0,0,1-.39-.1.52.52,0,0,1-.32-.36,3.85,3.85,0,0,1-.08-.49,1.79,1.79,0,0,0-.09-.46.46.46,0,0,0-.34-.31.38.38,0,0,0-.18.09.21.21,0,0,0-.1.17v4.45c0,.06-.07.11-.2.16l-.44.1a3.88,3.88,0,0,1-.48,0H118l-.09,0a2,2,0,0,0-.07-.23.18.18,0,0,0-.18-.13h-1a.37.37,0,0,0-.2.12l-.33.25a3.91,3.91,0,0,1-.44.26,1.17,1.17,0,0,1-.49.11.42.42,0,0,1-.22,0,.27.27,0,0,1-.1-.08l-.07-.09a.11.11,0,0,0-.1,0,.44.44,0,0,0-.16.06l-.2.15a1.64,1.64,0,0,1-.22.14.55.55,0,0,1-.24.07l-.15,0-.2-.08-.18-.1c-.06,0-.09-.07-.09-.1v-.59a1.12,1.12,0,0,0,0-.31c0-.09-.08-.14-.16-.14a1.06,1.06,0,0,0-.39.24l-.65.54c-.23.21-.45.39-.66.56a1.77,1.77,0,0,1-.46.31Zm3.48,1.23v.07a3.55,3.55,0,0,1-.73.08,5.7,5.7,0,0,0-.72,0c-.43,0-.87,0-1.3,0h-1.3c-.11,0-.16,0-.14-.13s.06-.12.12-.12h4Zm4.33-1.28a.38.38,0,0,1-.18.15.36.36,0,0,0-.18.12.35.35,0,0,0-.06.14,1.64,1.64,0,0,0,0,.22v.41a.1.1,0,0,1,0,.1l-.09,0-.09.07a.29.29,0,0,0,0,.18,10.94,10.94,0,0,0,.1,1.51,9.59,9.59,0,0,1,.11,1.51v.71c0,.15,0,.28,0,.41l0,.23a.55.55,0,0,1-.28.24,1.91,1.91,0,0,1-.47.12,4.23,4.23,0,0,1-.5.05h-.63c-.1,0-.14-.06-.14-.16v-3c0-.09,0-.12-.16-.1a.42.42,0,0,0-.17.1c-.08.05-.16.12-.25.19l-.26.21-.2.14c-.28.19-.59.4-1,.62a12.33,12.33,0,0,1-1.12.63,11.19,11.19,0,0,1-1.18.48,3.38,3.38,0,0,1-1.09.19h-.1a.07.07,0,0,1-.07-.07s.08-.12.23-.24l.5-.38.54-.38.36-.26a6,6,0,0,0,.79-.87,12.51,12.51,0,0,1,.81-1,5,5,0,0,1,.91-.8,1.9,1.9,0,0,1,1.1-.33h.2c.06,0,.09-.06.11-.15a1,1,0,0,0,0-.25c0-.12,0-.25,0-.39a2.4,2.4,0,0,1,0-.38.34.34,0,0,1,0-.2.23.23,0,0,1,.19-.07h1.27c.19,0,.39,0,.56,0a1.91,1.91,0,0,1,.41.11Zm-2.21-1.61a.14.14,0,0,0,.12.16h1.17a.14.14,0,0,0,.16-.12V16.3a.14.14,0,0,0-.12-.16h-1.18a.13.13,0,0,0-.15.12v4.36Zm.94-2.21h.09a.05.05,0,0,1,0,.05s0,0-.08,0H117a.48.48,0,0,1-.17,0s-.07,0-.07-.05,0,0,0,0h.53Zm5.38,9.34a.11.11,0,0,1-.08,0,2.64,2.64,0,0,1-.38-.18l-.38-.2-.84-.54c-.36-.25-.72-.51-1.06-.79a8.49,8.49,0,0,1-.91-.89,1.33,1.33,0,0,1-.38-.84c0-.1,0-.15.1-.15a1.55,1.55,0,0,1,.48.13c.24.08.5.19.78.3s.56.22.81.33a5.89,5.89,0,0,0,.59.21,7.1,7.1,0,0,0,1.29.22,3.59,3.59,0,0,1,1.26.31.2.2,0,0,1,.08,0,.1.1,0,0,1,0,.08s0,.07-.08.12-.33.35-.49.54a3.54,3.54,0,0,0-.41.58,3.05,3.05,0,0,0-.13.32,3.18,3.18,0,0,1-.16.32.21.21,0,0,1-.16.11Zm1.53-4.24c0,.06,0,.09-.11.11a1,1,0,0,1-.25.05l-.28,0h-2.54c-.38,0-.73,0-1.07,0l-.84,0a1.63,1.63,0,0,1-.43-.08l.08-.05a.23.23,0,0,1,.11,0h2.22a.53.53,0,0,0,.42-.21,3.41,3.41,0,0,0,.37-.48,5,5,0,0,0,.29-.47c.09-.14.15-.21.2-.21a.92.92,0,0,1,.33.19l.56.44c.2.16.39.33.56.48Z" style="fill:#e8b34d"/><path d="M128.79,27.18h4.44c.49,0,1,0,1.48,0h2.17a4,4,0,0,1,.69.06.07.07,0,0,1,.08.05v0c0,.05,0,.07-.08.07h-8.35a2.28,2.28,0,0,0-.37,0l-.15.13a1.85,1.85,0,0,1-.14.14l-.34.3a1.77,1.77,0,0,1-.32.21,1.51,1.51,0,0,1-.35.14,1.79,1.79,0,0,1-.46,0,.14.14,0,0,1-.16-.11v0c0-2.33,0-4.65-.05-7s0-4.64,0-7l0,0,0,0a1,1,0,0,1,.35.11l.67.28.73.3a1.71,1.71,0,0,0,.49.14h8.52A.41.41,0,0,0,138,15a2.43,2.43,0,0,0,.24-.32l.22-.35a.66.66,0,0,1,.29-.23,1.38,1.38,0,0,1,.33.2l.48.39.48.42.31.31,0,.07,0,.08a.41.41,0,0,1-.11.07.71.71,0,0,0-.14.1l-.13.1a.16.16,0,0,0-.05.11V27.69c0,.09-.08.17-.23.25a3.38,3.38,0,0,1-.54.17,3.83,3.83,0,0,1-.59.1,1.34,1.34,0,0,1-.4,0l-.07-.06a2.29,2.29,0,0,1-.07-.36,3.46,3.46,0,0,1,0-.46V24.14a.32.32,0,0,0-.1-.17.25.25,0,0,0-.17-.11h-2.1a.18.18,0,0,0-.15.08.34.34,0,0,0-.05.17c0,.31,0,.61,0,.91a2.84,2.84,0,0,1-.16.82,1.24,1.24,0,0,1-.47.59,1.59,1.59,0,0,1-.93.23h-.12s-.06,0-.08-.1a5,5,0,0,1-.16-.51,1.22,1.22,0,0,0-.28-.48l-.06-.07a.1.1,0,0,1,0-.1s0-.07.11-.09l.27-.07a.79.79,0,0,0,.26-.08.2.2,0,0,0,.12-.18V22.85q0-.34-.18-.39a2.2,2.2,0,0,0-.44-.05c-.17,0-.37,0-.62,0l-.76.05c-.25,0-.5.06-.74.11a2.73,2.73,0,0,0-.56.15l-.13.05-.2.09L130,23l-.1,0s-.08-.05-.15-.14-.15-.21-.23-.34a3.48,3.48,0,0,1-.22-.36.92.92,0,0,1-.09-.23.08.08,0,0,1,.07-.1h0l.13,0h2.9a.13.13,0,0,0,.15-.11v-.65l-.05-.11h0a.82.82,0,0,0-.51-.07,3.18,3.18,0,0,0-.61.14l-.63.2a1.78,1.78,0,0,1-.56.1l-.15,0c-.07,0-.11,0-.11-.09v-3.7a.16.16,0,0,0-.1-.17,1,1,0,0,0-.23-.08l-.23-.06a.14.14,0,0,1-.11-.13.06.06,0,0,1,.05-.06h3.09c.11,0,.16-.06.17-.18v-.39a2.67,2.67,0,0,1,0-.4c0-.11.05-.17.16-.17a7.22,7.22,0,0,1,.8,0,2.88,2.88,0,0,1,.76.17l.05,0a.54.54,0,0,1-.07.13.15.15,0,0,0,0,.14v.14a.47.47,0,0,0,0,.17.39.39,0,0,0,.06.15.12.12,0,0,0,.12.06h1a.34.34,0,0,0,.2,0,1.29,1.29,0,0,0,.16-.17l.2-.27.19-.24a.25.25,0,0,1,.18-.11.76.76,0,0,1,.23.13,3.44,3.44,0,0,1,.36.28c.12.11.22.21.32.32a1.37,1.37,0,0,1,.18.24l0,.05-.46,0-.46,0-.3,0a.18.18,0,0,0-.18.18v0a.38.38,0,0,0,.16.31l.36.24a4,4,0,0,1,.37.23.33.33,0,0,1,.16.28.29.29,0,0,1-.11.19,1.25,1.25,0,0,0-.15.19v1.83a.13.13,0,0,1-.08.12l-.16.05a.38.38,0,0,0-.16.06.2.2,0,0,0-.08.19.28.28,0,0,0,.18.28l.4.16a1.92,1.92,0,0,1,.41.19.42.42,0,0,1,.18.38.34.34,0,0,1-.07.19,1.57,1.57,0,0,1-.17.21c-.07.06-.13.13-.2.18l-.16.13,0,.11a.7.7,0,0,0,.17.25,1.51,1.51,0,0,0,.28.22,2.58,2.58,0,0,0,.32.18,1.62,1.62,0,0,0,.28.11l.11-.08a.18.18,0,0,0,.05-.12v-8a.14.14,0,0,0-.12-.16h-9.05s-.08,0-.09.15,0,.21,0,.33v.36c0,.12,0,.2,0,.25,0,.57,0,1.14,0,1.7s0,1.13,0,1.71v1.31a.8.8,0,0,0,0,.31.53.53,0,0,0,.08.17c0,.07,0,.13,0,.16l-.05.11a7,7,0,0,1-.06.8,7.31,7.31,0,0,0,0,.8v.14c0,.07,0,.1.1.1h4.49l.25,0c0,.05-.11.09-.26.1a4.89,4.89,0,0,1-.54,0h-.57a2.28,2.28,0,0,0-.37,0l-.1,0a.06.06,0,0,0-.06.06.44.44,0,0,0,.07.24l.15.24a2.26,2.26,0,0,1,.16.26.67.67,0,0,1,.07.31.49.49,0,0,1-.26.46.93.93,0,0,1-.51.16.62.62,0,0,1-.57-.26,1.82,1.82,0,0,1-.22-.56c0-.21-.09-.4-.13-.56s-.13-.26-.27-.26h-1.17l-.11.05v0l0,.11c0,.11,0,.32,0,.62s0,.62-.05,1,0,.64,0,.91a2,2,0,0,0,0,.49Zm1.28-9.66.49.23.53.23a4.27,4.27,0,0,0,.54.18,2.33,2.33,0,0,0,.53.07l.2,0c.09,0,.14,0,.14-.1v-.78a.13.13,0,0,0-.12-.15h-2.15a.21.21,0,0,0-.21.12A.17.17,0,0,0,130.07,17.52Zm1.41.89c-.06,0-.09.06-.1.16a2,2,0,0,0,0,.22,1.6,1.6,0,0,0,0,.44.32.32,0,0,0,.15.19.66.66,0,0,0,.28,0h.44a.3.3,0,0,0,.16-.05.14.14,0,0,0,.07-.12v-.72a.13.13,0,0,0-.11-.16h-.92Zm0,1.29a.94.94,0,0,0-.07.34,1.71,1.71,0,0,0,0,.45.24.24,0,0,0,.13.18.53.53,0,0,0,.28,0h.47a.3.3,0,0,0,.16-.05.14.14,0,0,0,.07-.12V19.8a.13.13,0,0,0-.11-.15h-.86Zm3.51-.25a.3.3,0,0,0,.16-.05.17.17,0,0,0,.08-.12v-.6c0-.13,0-.21-.07-.24a.46.46,0,0,0-.28,0h-.62c-.06,0-.11.06-.15.17a1.34,1.34,0,0,0,0,.35,1.49,1.49,0,0,0,0,.36c0,.1.1.16.18.16Zm.08,1.24a.15.15,0,0,0,.16-.12v-.65c0-.13,0-.21-.07-.24a.38.38,0,0,0-.28,0h-.62c-.06,0-.11.06-.15.16a1.12,1.12,0,0,0,0,.36,1,1,0,0,0,0,.35c0,.11.1.17.18.17Zm-.8-3.51c-.1,0-.15.05-.17.17a2.11,2.11,0,0,0,0,.26,2.56,2.56,0,0,0,0,.39c0,.14.11.21.28.21a1.72,1.72,0,0,0,.39,0,2.3,2.3,0,0,0,.42-.14,1.12,1.12,0,0,0,.33-.24.54.54,0,0,0,.13-.37.39.39,0,0,0,0-.18s-.08-.06-.18-.06Zm1.45,5.66s0,.05-.09.1a.37.37,0,0,0-.1.28c0,.21,0,.33.13.35a.31.31,0,0,0,.28-.06,1.24,1.24,0,0,0,.28-.28.73.73,0,0,0,.15-.32.23.23,0,0,0,0-.16l-.08-.15a1.78,1.78,0,0,0-.28-.38.55.55,0,0,0-.42-.2,2.36,2.36,0,0,0-.65.08c-.21.06-.43.11-.65.15l-.14,0s0,.06,0,.14a.15.15,0,0,0,.09.16,1.19,1.19,0,0,0,.26.05l.42.05.44,0h.28l.11.05Zm-1.52-1.18a.13.13,0,0,0,.12.15s0,0,0,0h.77a.07.07,0,0,0,.08,0,.19.19,0,0,0,0-.1.65.65,0,0,0-.3-.53,1,1,0,0,0-.56-.24.24.24,0,0,0-.12,0,.08.08,0,0,0-.05.09Z" style="fill:#e8b34d"/><path d="M33.54,7.76a3.43,3.43,0,0,1,0,.56,2.55,2.55,0,0,1-.08.61,1.89,1.89,0,0,1-1.17,1.36,2.37,2.37,0,0,1-1,.18,3.42,3.42,0,0,1-2.24-.64,2,2,0,0,1-.79-1.72,2,2,0,0,1,.82-1.72,3.4,3.4,0,0,1,2.22-.65A4,4,0,0,1,33,6L33,7.28h-.06A1.47,1.47,0,0,0,31.4,6.06a1.49,1.49,0,0,0-1.22.53,2.26,2.26,0,0,0-.43,1.46,2.34,2.34,0,0,0,.44,1.49,1.61,1.61,0,0,0,1.29.59A1.86,1.86,0,0,0,33,9.54a2.32,2.32,0,0,0,.54-1.62V7.76Z" style="fill:#e8b34d"/><path d="M36.63,10.63l.75.2.51.12,1,.23a5.34,5.34,0,0,0,1,.1,2.22,2.22,0,0,0,.81-.13l.05,0a2.31,2.31,0,0,1-.74.61,1.9,1.9,0,0,1-.84.21,4.4,4.4,0,0,1-.88-.1,5.73,5.73,0,0,1-.89-.28l-1-.4-.91-.41a4.32,4.32,0,0,0-1.69-.44v-.06L36,6.14H34.86a.78.78,0,0,0-.73.4A1,1,0,0,0,34,7V7H34V5.7l.34.08.45,0H37l.42,0a1.4,1.4,0,0,0,.28-.06v.06l-2.33,4.52C35.7,10.38,36.13,10.5,36.63,10.63Z" style="fill:#e8b34d"/><path d="M40.42,5.89a.41.41,0,0,0-.36.21.36.36,0,0,0-.06.2V9.85a2.85,2.85,0,0,1-.16,1,1.77,1.77,0,0,1-.5.71,1.24,1.24,0,0,1-.81.29,2.43,2.43,0,0,1-1.08-.33v-.06l.21,0a1.07,1.07,0,0,0,.25,0,.68.68,0,0,0,.26-.12.77.77,0,0,0,.21-.23,1.25,1.25,0,0,0,.15-.28,1.65,1.65,0,0,0,.07-.32,3.15,3.15,0,0,0,.06-.61V6.3A.46.46,0,0,0,38.54,6a.4.4,0,0,0-.28-.12h-.09V5.83h2.34v.06Z" style="fill:#e8b34d"/><path d="M43.91,10.31a.42.42,0,0,0,.3-.12.44.44,0,0,0,.12-.28V8.26H42.59V9.92a2.08,2.08,0,0,1-.31,1.14,1.31,1.31,0,0,1-1,.61H41.1a2.28,2.28,0,0,1-.68-.13v-.06a1.24,1.24,0,0,0,.69-.56,1.17,1.17,0,0,0,.13-.44,5,5,0,0,0,0-.58V6.29a.42.42,0,0,0-.43-.4h-.08V5.83h2.33v.06H43a.38.38,0,0,0-.35.2.37.37,0,0,0-.07.2V7.94h1.76V6.4a1.74,1.74,0,0,1,.15-.71,1.61,1.61,0,0,1,.44-.59A1.58,1.58,0,0,1,46,4.7a1.79,1.79,0,0,1,.51.07v.06a1.24,1.24,0,0,0-.54.32,1.24,1.24,0,0,0-.24.47,1.67,1.67,0,0,0-.06.39V9.9a.42.42,0,0,0,.2.35.43.43,0,0,0,.22.06h.08v.07H43.85v-.06Z" style="fill:#e8b34d"/><path d="M54.35,11.49a2.05,2.05,0,0,1-1,.3,2.57,2.57,0,0,1-1-.2,2.63,2.63,0,0,1-.91-.67,3.94,3.94,0,0,1-.73-1.19l-.18-.44h-1.4l-.26.61a.65.65,0,0,0,0,.13.27.27,0,0,0,0,.12.24.24,0,0,0,.09.11.33.33,0,0,0,.16.05h.06v.07H47.71v-.06h.06a.5.5,0,0,0,.29-.09.63.63,0,0,0,.25-.26l1.33-2.92a3.34,3.34,0,0,0-.33-.72,1.86,1.86,0,0,0-.21-.28.89.89,0,0,0-.39-.27.76.76,0,0,0-.21,0,.67.67,0,0,0-.28.06l0-.07a2,2,0,0,1,1-.3,1.63,1.63,0,0,1,1.27.69A3.9,3.9,0,0,1,51,7l1,2.39c.13.3.27.6.42.88l.25.38a1.86,1.86,0,0,0,.21.28,2.5,2.5,0,0,0,.23.23,1.33,1.33,0,0,0,.54.28,1,1,0,0,0,.3.05,1.41,1.41,0,0,0,.35-.05ZM49.28,9H50.4L50,8c0-.08-.08-.19-.12-.33Z" style="fill:#e8b34d"/><path d="M52.83,10.31a.4.4,0,0,0,.28-.12.41.41,0,0,0,.13-.28V6.3A.39.39,0,0,0,53,5.94a.36.36,0,0,0-.21-.05h-.08V5.82h2.34v.07H55a.47.47,0,0,0-.28.12.4.4,0,0,0-.12.29V10h.8a1.23,1.23,0,0,0,.84-.31,1.71,1.71,0,0,0,.51-.87h.07l-.27,1.52H52.75v-.06Z" style="fill:#e8b34d"/><path d="M62.16,5.89h-.1a.36.36,0,0,0-.24.09.39.39,0,0,0-.11.22V8.7A1.67,1.67,0,0,1,61.2,10a2,2,0,0,1-1.43.46A2.82,2.82,0,0,1,58,10a1.56,1.56,0,0,1-.58-1.31V6.2a.33.33,0,0,0-.1-.23.38.38,0,0,0-.25-.09H57V5.81h2.23v.08h-.1a.34.34,0,0,0-.24.09.3.3,0,0,0-.11.23V8.69a1.7,1.7,0,0,0,.31,1.07,1.22,1.22,0,0,0,1.75,0,1.5,1.5,0,0,0,.32-1V6.2A.34.34,0,0,0,61,6a.3.3,0,0,0-.24-.08h-.1V5.82h1.46Z" style="fill:#e8b34d"/><path d="M68.56,10.31h.1v.07h-2.3v-.05h.1a.28.28,0,0,0,.19-.09.22.22,0,0,0,.06-.19l-.24-1.91L65.36,9.78a1.85,1.85,0,0,0-.19.37.84.84,0,0,0-.08.38H65L63.34,8.2,63.12,10a.22.22,0,0,0,.06.19.25.25,0,0,0,.19.09h.1v.06H62v-.06h.1a.52.52,0,0,0,.32-.11.49.49,0,0,0,.16-.3l.56-4.17h.06l2.18,3,2-3h0l.6,4.17a.45.45,0,0,0,.16.3A.48.48,0,0,0,68.56,10.31Z" style="fill:#e8b34d"/><path d="M74,5.89a.39.39,0,0,0-.28.12.36.36,0,0,0-.12.28V9.66a3.12,3.12,0,0,0,.06.74l0,.09h-.06L70.48,7.72V9.93a.39.39,0,0,0,.39.4H71v.05H68.63v-.06h.12a.39.39,0,0,0,.28-.11.4.4,0,0,0,.12-.29V6.56a2.55,2.55,0,0,0-.07-.73V5.74h.06l3.12,2.77V6.28A.45.45,0,0,0,72.12,6a.39.39,0,0,0-.28-.11h-.12V5.82H74.1v.07Z" style="fill:#e8b34d"/><path d="M74.38,10.31a.41.41,0,0,0,.4-.4V6.29A.36.36,0,0,0,74.66,6a.39.39,0,0,0-.28-.12h-.09V5.83h2.33v.06h-.08a.45.45,0,0,0-.28.12.41.41,0,0,0-.13.28V9.9a.4.4,0,0,0,.12.28.44.44,0,0,0,.28.12h.09v.08H74.29v-.06Z" style="fill:#e8b34d"/><path d="M85.41,4.27a2,2,0,0,1,.48-.06l.35,0v.06a2,2,0,0,0-1.77,1.57L83.26,9.79a3,3,0,0,0-.09.72H83.1L81.61,7.69,80.4,10.16a3,3,0,0,1-.37.62c-.1.12-.21.23-.32.34a1.51,1.51,0,0,1-.28.22,1.29,1.29,0,0,1-.66.24,1.24,1.24,0,0,1-.33,0v-.06a1.4,1.4,0,0,0,.76-.42,3.12,3.12,0,0,0,.51-.64c.14-.25.25-.47.34-.66l-1.32-3.5a.61.61,0,0,0-.56-.37h0V5.82h2.33v.07h-.06a.26.26,0,0,0-.26.19v.09a.31.31,0,0,0,0,.13l.7,1.77L82,5.73h.06l1.28,2.38L84,5.86a2.47,2.47,0,0,1,.5-1A1.63,1.63,0,0,1,85.41,4.27Z" style="fill:#e8b34d"/><path d="M85,10.31a.41.41,0,0,0,.41-.4V6.29a.41.41,0,0,0-.41-.4H84.9V5.83h2.33v.06h-.08a.45.45,0,0,0-.28.12.45.45,0,0,0-.13.28V9.9a.4.4,0,0,0,.12.28.45.45,0,0,0,.29.12h.08v.08H84.89v-.06Z" style="fill:#e8b34d"/><path d="M92.9,5.89a.39.39,0,0,0-.28.12.4.4,0,0,0-.12.28V9.66a2.69,2.69,0,0,0,.07.74v.09h0L89.41,7.72V9.93a.37.37,0,0,0,.2.35.46.46,0,0,0,.2.05h.12v.05H87.55v-.06h.12a.39.39,0,0,0,.28-.11.4.4,0,0,0,.12-.29V6.56A3,3,0,0,0,88,5.83l0-.09h.07l3.11,2.77V6.28a.4.4,0,0,0-.39-.39h-.11V5.83H93v.06Z" style="fill:#e8b34d"/><path d="M97.59,6.42a2.15,2.15,0,0,1,.69,1.69,2.14,2.14,0,0,1-.69,1.68,2.8,2.8,0,0,1-1.91.6H93.22v-.06h.08a.45.45,0,0,0,.28-.12.46.46,0,0,0,.13-.29V6.28A.35.35,0,0,0,93.58,6a.48.48,0,0,0-.28-.1h-.07V5.84h2.46A2.81,2.81,0,0,1,97.59,6.42Zm-2.52-.28v3.91h.5a1.07,1.07,0,0,0,.93-.51,2.64,2.64,0,0,0,.35-1.43,2.7,2.7,0,0,0-.35-1.44,1.07,1.07,0,0,0-1-.51Z" style="fill:#e8b34d"/><path d="M102.74,10.48q-2.67,0-2.67-2.19c0-.13,0-.26,0-.39h.07a2.13,2.13,0,0,0,.8,1.81V6.29a.37.37,0,0,0-.13-.28.43.43,0,0,0-.28-.11h-.08V5.83h2a2.28,2.28,0,0,1,1.62.5.91.91,0,0,1,.28.66,1,1,0,0,1-.28.71.67.67,0,0,1-.28.19h.06a1.27,1.27,0,0,1,.84.3,1,1,0,0,1,.37.83,1.14,1.14,0,0,1-.37.86A2.78,2.78,0,0,1,102.74,10.48ZM103,7.21V7a1.15,1.15,0,0,0-.17-.63.62.62,0,0,0-.5-.24v4a1.24,1.24,0,0,0,.9-.31,1.06,1.06,0,0,0,.33-.8,1,1,0,0,0-.31-.8A1,1,0,0,0,102.5,8V7.91a.35.35,0,0,0,.24-.08.34.34,0,0,0,.13-.18A1.12,1.12,0,0,0,103,7.21Z" style="fill:#e8b34d"/><path d="M109.93,10.31h0v.07h-2.46v-.06h.06a.24.24,0,0,0,.21-.09.24.24,0,0,0,.07-.16.45.45,0,0,0,0-.16l-.25-.61h-1.4l-.27.61,0,.14a.26.26,0,0,0,0,.11.17.17,0,0,0,.09.11.3.3,0,0,0,.16.05h.06v.06h-1.45v-.06h.06a.55.55,0,0,0,.3-.09.67.67,0,0,0,.24-.26l1.52-3.33a4.65,4.65,0,0,0,.37-1h0L109.37,10A.65.65,0,0,0,109.93,10.31ZM106.33,9h1.12l-.54-1.3Z" style="fill:#e8b34d"/><path d="M115.2,5.89a.39.39,0,0,0-.28.12.36.36,0,0,0-.12.28V9.66a3.12,3.12,0,0,0,.06.74l0,.09h-.06l-3.11-2.8V9.91a.37.37,0,0,0,.2.35.46.46,0,0,0,.2.05h.12v.07h-2.38v-.06H110a.39.39,0,0,0,.28-.11.4.4,0,0,0,.12-.29V6.56a3,3,0,0,0-.06-.73l0-.09h.06l3.12,2.77V6.28a.45.45,0,0,0-.13-.28.39.39,0,0,0-.28-.11h-.12V5.82h2.38v.07Z" style="fill:#e8b34d"/><path d="M119.89,6.42a2.11,2.11,0,0,1,.68,1.69,2.1,2.1,0,0,1-.68,1.68,2.8,2.8,0,0,1-1.91.6h-2.47v-.06h.09a.5.5,0,0,0,.28-.12.4.4,0,0,0,.12-.29V6.28a.34.34,0,0,0-.12-.27.42.42,0,0,0-.28-.1h-.08V5.84H118A2.85,2.85,0,0,1,119.89,6.42Zm-2.54-.28v3.91h.5a1.09,1.09,0,0,0,1-.51,2.55,2.55,0,0,0,.34-1.43,2.6,2.6,0,0,0-.34-1.44,1.08,1.08,0,0,0-1-.51Z" style="fill:#e8b34d"/></g></g></svg>