<svg xmlns="http://www.w3.org/2000/svg" viewBox="0 0 111.58 134.12"><g id="a6dd60dd-2be2-4b31-943f-331c62b6eb61" data-name="圖層 1"><path d="M39.42,74.17A2,2,0,0,1,38,73.58a2,2,0,0,1,0-2.83L108.17.59A2,2,0,1,1,111,3.41L40.83,73.58A2,2,0,0,1,39.42,74.17Z" style="fill:#f2b94b"/><path d="M2,134.12a2,2,0,0,1-1.41-3.41L91.07,40.23a2,2,0,0,1,2.82,2.83L3.41,133.54A2,2,0,0,1,2,134.12Z" style="fill:#f2b94b"/><path d="M6.36,84.07A2,2,0,0,1,5,80.65L55.77,29.84a2,2,0,1,1,2.82,2.83L7.78,83.48A2,2,0,0,1,6.36,84.07Z" style="fill:#f2b94b"/></g></svg>