<svg xmlns="http://www.w3.org/2000/svg" viewBox="0 0 47.48 28.59"><g id="bd3ed118-1b7a-4331-a689-45045227b2a4" data-name="圖層 1"><path d="M34.92,2V5.05h3V5.9h-3v6.85c0,1.35.42,2.19,1.55,2.19a3.79,3.79,0,0,0,1.2-.17l.12.81a3.78,3.78,0,0,1-1.45.25,2.23,2.23,0,0,1-1.82-.75,3.82,3.82,0,0,1-.64-2.51V5.9H32.1V5.05h1.78V2.34Z" style="fill:#002f48"/><path d="M39.16,0h1.05V6.94h0a3.75,3.75,0,0,1,1.44-1.52,3.93,3.93,0,0,1,2.12-.61c1,0,3.67.5,3.67,4.43V15.6h-1V9.35c0-1.9-.74-3.63-2.9-3.63a3.47,3.47,0,0,0-3.18,2.39,3,3,0,0,0-.14,1V15.6H39.16Z" style="fill:#002f48"/><path d="M5.07,3.19H5L.5,5.82,0,4.23,5.2,1.14H7V28.59h-2Z" style="fill:#002f48"/><path d="M13.43,28.59V27.33L16,24.72c7.62-7.47,11-11.34,11-16,0-3.14-1.33-6.22-6-6.22a9,9,0,0,0-5.81,2.37l-.8-1.38a10.37,10.37,0,0,1,7-2.76C27.07.68,29,5,29,8.25c0,5.4-3.91,9.74-10.78,16.53l-1.94,2v.09H29.75v1.71Z" style="fill:#002f48"/></g></svg>