<svg xmlns="http://www.w3.org/2000/svg" viewBox="0 0 622.33 488.68"><g id="a30d7516-4da4-4d86-8f03-dfc0e2251f67" data-name="圖層 1"><path d="M69.32,313.56a269.49,269.49,0,0,0,80,46.62c27,10.09,55.11,15.44,83.27,21.14,28,5.67,56.39,11.85,81.35,26.45,26.63,15.58,41.42,44.68,68.7,59.25.34.18.68.27,1,.42s.48.58.78.85C424.67,504,488.13,485.46,532,468c48.76-19.45,98.47-63.39,89.21-122.1-5.06-32.09-26.58-57.3-49.07-79.14s-43.61-42.6-58.49-70.92C487.31,145.66,475.12,87.2,433.5,46.35c-37.66-37-92-47.76-142.64-46.21C228.2,2.07,163.2,19.22,107,46.62,57.6,70.69,11.56,110.28,1.64,167.56-8.2,224.37,27.8,278.29,69.32,313.56Z" style="fill:#f2b94b"/></g></svg>