<svg xmlns="http://www.w3.org/2000/svg" viewBox="0 0 182.58 205.13"><g id="ab500775-310c-44d3-9ee1-6465c8350469" data-name="圖層 1"><path d="M2,205.13a2,2,0,0,1-1.41-.59,2,2,0,0,1,0-2.83L112.67,89.63a2,2,0,1,1,2.82,2.83L3.41,204.54A2,2,0,0,1,2,205.13Z" style="fill:#f2b94b"/><path d="M36.05,148.53a2,2,0,0,1-1.41-.59,2,2,0,0,1,0-2.82L179.17.59A2,2,0,0,1,182,3.41L37.47,147.94A2,2,0,0,1,36.05,148.53Z" style="fill:#f2b94b"/><path d="M78.79,151.48a2,2,0,0,1-1.41-.58,2,2,0,0,1,0-2.83L158.55,66.9a2,2,0,1,1,2.83,2.83L80.21,150.9A2,2,0,0,1,78.79,151.48Z" style="fill:#f2b94b"/></g></svg>