<svg xmlns="http://www.w3.org/2000/svg" viewBox="0 0 371 64.61"><g id="be7079d9-3068-49ab-942a-d008b3f77d6c" data-name="title"><rect width="371" height="64.61" rx="8.39" style="fill:#e8b34d"/><path d="M61.43,30.6A11.36,11.36,0,0,1,62.62,32c.43.59.73,1,.89,1.22,1.58,2.16,2.38,3.65,2.38,4.48,0,1.05-.62,1.57-1.86,1.57a1.1,1.1,0,0,1-.83-.38,5.64,5.64,0,0,1-.79-1.19A31.52,31.52,0,0,0,60.74,35l-.86-1.33L58.83,32l-.09-.19V52.55c0,1.59-.65,2.39-2,2.39s-2-.8-2-2.39V32.77A27.26,27.26,0,0,1,53,37.06a42.66,42.66,0,0,1-3,4.86,2.08,2.08,0,0,1-1.76,1,1.64,1.64,0,0,1-1.15-.43,1.54,1.54,0,0,1-.57-1.14,3.25,3.25,0,0,1,.67-1.72,61.36,61.36,0,0,0,4.22-7.41,63.21,63.21,0,0,0,3-7.18H49.2c-1.49,0-2.24-.59-2.24-1.76s.75-1.72,2.24-1.72h5.63V14.17q0-2.43,2-2.43c1.31,0,2,.81,2,2.43v7.44h4.81c1.47,0,2.2.59,2.2,1.77s-.73,1.71-2.2,1.71H58.74v5.53a1.25,1.25,0,0,1,.64-.64,1.17,1.17,0,0,1,.79-.12A2.71,2.71,0,0,1,61.43,30.6ZM87.85,15.15a3.58,3.58,0,0,1,.93,2.65v32a3.24,3.24,0,0,1-3.58,3.58H70.66a3.24,3.24,0,0,1-3.58-3.58v-32A3.58,3.58,0,0,1,68,15.15a3.58,3.58,0,0,1,2.65-.93H85.2A3.6,3.6,0,0,1,87.85,15.15ZM85,19.7a1.86,1.86,0,0,0-.48-1.35,1.72,1.72,0,0,0-1.33-.51H72.76a1.87,1.87,0,0,0-1.36.48,1.8,1.8,0,0,0-.5,1.38v6.58H85Zm0,17.64V29.91H70.9v7.43Zm0,3.58H70.9v7a1.88,1.88,0,0,0,.47,1.36,1.81,1.81,0,0,0,1.39.5H83.15a1.78,1.78,0,0,0,1.33-.48A1.84,1.84,0,0,0,85,47.88Z" style="fill:#fff"/><path d="M148.6,51.7q0,1.95-2.76,1.95l-14.74,0q-8.53,0-12.06-1a13.19,13.19,0,0,1-5.82-3.24l-.09,0q-4.62,4-6.06,4a1.76,1.76,0,0,1-1.45-.62,2.62,2.62,0,0,1-.5-1.67,2.12,2.12,0,0,1,1.48-2,25.14,25.14,0,0,0,4.34-2.29V38a1.31,1.31,0,0,0-1.48-1.47h-2.39a2,2,0,0,1-1.4-.43,1.78,1.78,0,0,1-.46-1.34,1.69,1.69,0,0,1,.46-1.31,2.05,2.05,0,0,1,1.4-.41h3.72a4.33,4.33,0,0,1,3,.89,3.4,3.4,0,0,1,.86,2.79V46.4L116,47.64q3.11,2.49,13.87,2.48l16.93-.19A1.58,1.58,0,0,1,148.6,51.7ZM105.93,23.47a1.64,1.64,0,0,1,1.86-1.86,16.15,16.15,0,0,1,4,1.34c2.06.89,3.1,1.81,3.1,2.76,0,1.31-.62,2-1.86,2a3.57,3.57,0,0,1-1.62-.62l-4-1.72A2.06,2.06,0,0,1,105.93,23.47Zm2.24-9.11A1.62,1.62,0,0,1,110,12.5a16.76,16.76,0,0,1,3.77,1.39,8,8,0,0,1,2.24,1.4,2.14,2.14,0,0,1,.76,1.51c0,1.33-.62,2-1.86,2a2.92,2.92,0,0,1-1-.36c-.49-.24-.79-.39-.88-.45l-3.15-1.62C108.73,15.79,108.17,15.13,108.17,14.36ZM118.3,47.12a2.65,2.65,0,0,1-.4-1.62V35.39a4.47,4.47,0,0,1,1-3.22,3.78,3.78,0,0,1,3.1-.88h8.2V28.38h-6.77a4.12,4.12,0,0,1-2.93-.88,3.32,3.32,0,0,1-.79-2.79v-8.3a4,4,0,0,1,.88-2.88,3.63,3.63,0,0,1,2.84-.79h17.88a4.14,4.14,0,0,1,2.93.86,3.55,3.55,0,0,1,.79,2.81v8.3a3.94,3.94,0,0,1-.89,2.88,3.57,3.57,0,0,1-2.83.79h-7.63v2.91h9.25a4.43,4.43,0,0,1,3.19,1,4,4,0,0,1,.91,3.12v8a5,5,0,0,1-1.1,3.6,4.28,4.28,0,0,1-3.48,1h-3c-1.37,0-2-.59-2-1.76s.68-1.77,2-1.77h2.24a1.52,1.52,0,0,0,1.72-1.71V35.92a1.4,1.4,0,0,0-1.58-1.58h-8.15v4.15c1.78-.19,3.11-.35,4-.48l-.38-1a2.67,2.67,0,0,1-.09-.57,1.1,1.1,0,0,1,.86-1.1,3,3,0,0,1,.47-.09,1.34,1.34,0,0,1,1.24.81,28.58,28.58,0,0,1,1.29,2.67q.72,1.66,1.05,2.67a1.81,1.81,0,0,1,.09.62,1.32,1.32,0,0,1-.86,1.29,1.87,1.87,0,0,1-.71.14,1.25,1.25,0,0,1-.76-.24,1.28,1.28,0,0,1-.48-.62l-.76-1.95Q127.33,43,124.91,43a1.54,1.54,0,0,1-1.72-1.76,1.6,1.6,0,0,1,.57-1.29,2.59,2.59,0,0,1,1.43-.57q3.34-.29,5-.48V34.34h-7.15a1.4,1.4,0,0,0-1.58,1.58V45.5a2.45,2.45,0,0,1-.45,1.62,1.76,1.76,0,0,1-1.41.52A1.55,1.55,0,0,1,118.3,47.12Zm4.84-28h7.06V15.79h-5.77c-.86,0-1.29.45-1.29,1.34Zm7.06,6.25V22h-7.06v2a1.16,1.16,0,0,0,1.29,1.33Zm3.48-6.25h7.82V17.13a1.19,1.19,0,0,0-1.34-1.34h-6.48Zm0,6.25h6.48A1.18,1.18,0,0,0,141.5,24V22h-7.82Z" style="fill:#fff"/><path d="M175.34,31.62V52.51a2.8,2.8,0,0,1-.48,1.81,1.8,1.8,0,0,1-1.47.57,1.74,1.74,0,0,1-1.43-.57,2.8,2.8,0,0,1-.48-1.81V37.2c-3,3.72-4.91,5.58-5.87,5.58a1.91,1.91,0,0,1-1.43-.5,2.21,2.21,0,0,1-.47-1.55,1.45,1.45,0,0,1,.26-.83,6.08,6.08,0,0,1,.83-1A49.75,49.75,0,0,0,171.48,31c1.21-1.87,2.19-3.51,3-4.91l2.05-4.67h-10c-1.55,0-2.33-.63-2.33-1.91s.78-1.9,2.33-1.9h11.4l1.09-4.1c.35-1.37,1.07-2,2.15-2,1.37,0,2,.57,2,1.71a17.18,17.18,0,0,1-1.14,4l-.15.48h22.7c1.59,0,2.38.63,2.38,1.9s-.79,1.91-2.38,1.91H180.44A56.44,56.44,0,0,1,175.34,31.62Zm31.9,19.89c0,1.24-.76,1.86-2.29,1.86H179.54c-1.47,0-2.2-.62-2.2-1.86s.73-1.86,2.2-1.86h11.3V37.54h-8.92c-1.52,0-2.29-.62-2.29-1.86s.77-1.82,2.29-1.82h8.92V26.28c0-1.55.65-2.33,1.95-2.33s2,.78,2,2.33v7.58h8.34c1.56,0,2.34.61,2.34,1.82s-.78,1.86-2.34,1.86h-8.34V49.65H205C206.48,49.65,207.24,50.27,207.24,51.51Z" style="fill:#fff"/><path d="M222.58,32.77q0-2.19,2.67-2.19H263c1.78,0,2.67.74,2.67,2.24S264.74,35,263,35H225.25Q222.58,35,222.58,32.77Z" style="fill:#fff"/><path d="M324.46,51.65a2.07,2.07,0,0,1-.62,1.52c-.38.39-1.54.58-3.48.58-2.13,0-3.72,0-4.77,0q-4.81,0-7.2-.05a81.49,81.49,0,0,1-9.2-.62,25.64,25.64,0,0,1-6.05-1.38,13.42,13.42,0,0,1-6.44-5.72q-1.77,7.82-4.2,7.82c-1.11,0-1.67-.64-1.67-1.91a4.59,4.59,0,0,1,.62-2,26.24,26.24,0,0,0,2.08-6.32,42.18,42.18,0,0,0,.93-7.56c.06-1.52.68-2.29,1.86-2.29s1.62.77,1.62,2.29q0,1.38-.48,6.06a14,14,0,0,0,1.72,2.55,12,12,0,0,0,2.43,2V30.43H283.5c-1.46,0-2.19-.59-2.19-1.76s.73-1.77,2.19-1.77h8V21.61h-6.44a2.56,2.56,0,0,1-1.62-.45,1.64,1.64,0,0,1-.57-1.36c0-1.18.73-1.76,2.19-1.76h6.44v-4.3c0-1.43.65-2.14,2-2.14s1.86.71,1.86,2.14V18h4.91a2.56,2.56,0,0,1,1.62.45,1.62,1.62,0,0,1,.57,1.36c0,1.17-.73,1.76-2.19,1.76h-4.91V26.9h6q2.19,0,2.19,1.77A1.64,1.64,0,0,1,303,30a2.61,2.61,0,0,1-1.67.43h-5.92v6.06h5a2.56,2.56,0,0,1,1.62.45,1.61,1.61,0,0,1,.58,1.36c0,1.18-.74,1.76-2.2,1.76h-5v8.59q4.11,1.14,16.26,1.23c1.81,0,3.85,0,6.11-.14q1.14,0,4.38-.09C323.7,49.58,324.46,50.25,324.46,51.65Zm-19.6-9.25v-24a3.74,3.74,0,0,1,1-2.77,3.76,3.76,0,0,1,2.76-1h9.3a4.58,4.58,0,0,1,3.31,1,3.78,3.78,0,0,1,.84,3.19V26a4.65,4.65,0,0,1-1,3.27,3.88,3.88,0,0,1-3.17.88h-9.2V40.4c0,1.14.27,1.84.81,2.09a5.36,5.36,0,0,0,1.45.29l1.36.14c1.08.07,2.12.1,3.1.1s2.05,0,3.2-.1c.44-.06.77-.39,1-1a9.66,9.66,0,0,0,.31-2.91,2.27,2.27,0,0,1,.48-1.57,1.71,1.71,0,0,1,1.34-.52,2.14,2.14,0,0,1,1.57.52,2.29,2.29,0,0,1,.52,1.67q0,4.44-1.28,5.91a3.77,3.77,0,0,1-2.08,1.12,18,18,0,0,1-3.84.31q-4.95,0-7.17-.24a8.4,8.4,0,0,1-3-.71A3.4,3.4,0,0,1,304.86,42.4Zm3.82-16h7.77a1.71,1.71,0,0,0,1.31-.48,1.86,1.86,0,0,0,.45-1.33V20.23a1.62,1.62,0,0,0-1.76-1.81h-5.91a1.64,1.64,0,0,0-1.86,1.86Z" style="fill:#fff"/></g></svg>