<svg xmlns="http://www.w3.org/2000/svg" viewBox="0 0 74.31 74.39"><g id="a3122eaf-a411-477d-b6d6-ec105bc12cca" data-name="圖層 1"><path d="M56.94,8.49C59.14,10,61,10.61,62.82,12a30.23,30.23,0,0,1,9.62,12.82,28.73,28.73,0,0,1,1,17.29,54.08,54.08,0,0,1-4.59,11.18,65.47,65.47,0,0,1-7.31,11.72,26.51,26.51,0,0,1-10.68,8.18C44,75.79,37.15,73.7,31.22,71c-6.72-3.07-13.11-7-17.84-12.67C9.28,53.39,6.56,47.3,4,41.21,1.46,35.3-1,28.87.41,21.91,1.67,15.62,6.13,9.71,11.63,6.27c4-2.53,8.52-3.78,12.91-4.85a45.41,45.41,0,0,1,8-1.38c9.35-.49,17.11,3.53,24.36,8.45" style="fill:#f2b94b"/></g></svg>